<svg width="20" height="20" viewBox="0 0 20 20" xmlns="http://www.w3.org/2000/svg">
<path d="M16.5176 14.8289C17.931 12.9884 18.5912 10.6791 18.3644 8.36968C18.1376 6.06021 17.0407 3.92351 15.2963 2.39312C13.5519 0.86273 11.2906 0.0532703 8.97123 0.128981C6.65189 0.204691 4.4482 1.1599 2.8073 2.8008C1.16641 4.4417 0.211195 6.64538 0.135485 8.96473C0.0597744 11.2841 0.869234 13.5454 2.39962 15.2898C3.93002 17.0342 6.06671 18.1311 8.37618 18.3579C10.6857 18.5847 12.9949 17.9244 14.8354 16.5111L18.0317 19.7418C18.112 19.8189 18.2188 19.8619 18.33 19.8619C18.4412 19.8619 18.5481 19.8189 18.6284 19.7418L19.7397 18.6305C19.8174 18.5501 19.8608 18.4428 19.8608 18.3311C19.8608 18.2194 19.8174 18.112 19.7397 18.0317L16.5176 14.8289ZM9.34097 17.0258C8.17957 17.0251 7.03325 16.7628 5.98704 16.2585C4.94083 15.7542 4.02158 15.0209 3.29747 14.1128C2.57336 13.2048 2.06298 12.1454 1.80418 11.0132C1.54538 9.88101 1.54481 8.70507 1.80251 7.57262C2.36681 4.96 5.00097 2.32585 7.61789 1.75723C8.75034 1.49954 9.92628 1.50011 11.0585 1.75891C12.1907 2.01771 13.2501 2.52809 14.1581 3.2522C15.0661 3.9763 15.7995 4.89556 16.3038 5.94177C16.8081 6.98797 17.0703 8.13429 17.0711 9.29569V9.29569C17.0717 10.311 16.8721 11.3164 16.4839 12.2546C16.0956 13.1927 15.5262 14.0451 14.8083 14.763C14.0904 15.4809 13.238 16.0503 12.2998 16.4386C11.3617 16.8269 10.3563 17.0264 9.34097 17.0258V17.0258Z"/>
</svg>
